<svg width="65" height="52" viewBox="0 0 65 52" fill="none" xmlns="http://www.w3.org/2000/svg">
<path d="M31.64 5.56C31.64 6.616 30.968 7.384 29.624 7.864C28.664 8.248 27.544 8.44 26.264 8.44C24.984 8.44 23.64 8.264 22.232 7.912C20.76 7.624 19.528 7.128 18.536 6.424C18.472 6.36 18.44 6.296 18.44 6.232C18.44 6.168 18.472 6.136 18.536 6.136C18.632 6.136 18.696 6.152 18.728 6.184C20.488 7.336 22.968 7.912 26.168 7.912C27.256 7.912 28.248 7.72 29.144 7.336C30.04 6.92 30.488 6.312 30.488 5.512C30.488 4.36 29.656 3.496 27.992 2.92C26.84 2.504 25.544 2.296 24.104 2.296C20.104 2.296 17.368 3.592 15.896 6.184C15.448 6.984 15.224 7.816 15.224 8.68C15.224 10.632 16.312 12.344 18.488 13.816C19.928 14.776 21.928 16.056 24.488 17.656C26.632 19.416 27.704 21.608 27.704 24.232C27.704 27.784 25.88 30.632 22.232 32.776C19.192 34.568 15.928 35.464 12.44 35.464C8.984 35.464 6.232 34.856 4.184 33.64C1.624 32.168 0.344 30.04 0.344 27.256C0.344 24.44 1.368 22.152 3.416 20.392C5.496 18.6 7.896 17.704 10.616 17.704C12.12 17.704 12.872 17.832 12.872 18.088C12.872 18.152 12.616 18.184 12.104 18.184C11.592 18.184 11.32 18.184 11.288 18.184C8.696 18.184 6.456 18.952 4.568 20.488C2.552 22.056 1.544 24.168 1.544 26.824C1.544 29.448 2.456 31.48 4.28 32.92C6.104 34.392 8.248 35.128 10.712 35.128C13.176 35.128 15.8 34.552 18.584 33.4C23.384 31.48 25.784 28.488 25.784 24.424C25.784 21.928 24.68 19.912 22.472 18.376C21.768 17.864 20.728 17.176 19.352 16.312C17.976 15.448 17 14.824 16.424 14.44C14.248 12.968 13.16 11.176 13.16 9.064C13.16 7.656 13.688 6.376 14.744 5.224C13.784 5.32 12.968 5.784 12.296 6.616C11.656 7.512 11.336 8.44 11.336 9.4C11.336 11.608 12.376 13.496 14.456 15.064C15.128 15.576 17.048 16.904 20.216 19.048C22.264 20.744 23.288 22.728 23.288 25C23.288 27.272 22.168 29.368 19.928 31.288C17.688 33.24 15.4 34.216 13.064 34.216C12.904 34.216 12.824 34.168 12.824 34.072C12.824 33.88 12.936 33.784 13.16 33.784C14.152 33.656 15 33.48 15.704 33.256C17.432 32.552 18.984 31.432 20.36 29.896C21.736 28.36 22.424 26.744 22.424 25.048C22.424 22.68 21.416 20.744 19.4 19.24C18.792 18.76 17.848 18.104 16.568 17.272C15.32 16.408 14.392 15.752 13.784 15.304C11.736 13.8 10.712 11.848 10.712 9.448C10.712 8.264 11.128 7.224 11.96 6.328C12.792 5.4 13.784 4.936 14.936 4.936H15.032C17.304 2.76 20.232 1.672 23.816 1.672C27.4 1.672 29.816 2.456 31.064 4.024C31.448 4.504 31.64 5.016 31.64 5.56ZM64.7499 8.104C64.7499 8.232 64.6859 8.328 64.5579 8.392C64.4299 8.424 64.0459 8.536 63.4059 8.728C61.6459 9.848 60.1739 12.968 58.9899 18.088L56.1579 29.944C54.8139 34.872 53.2939 38.856 51.5979 41.896C49.3899 45.864 46.6859 48.744 43.4859 50.536C42.0139 51.336 40.3019 51.736 38.3499 51.736C36.3979 51.736 34.5259 51.032 32.7339 49.624C31.0699 48.216 29.8699 46.44 29.1339 44.296C29.1019 44.264 29.0859 44.168 29.0859 44.008C29.0859 43.88 29.1339 43.816 29.2299 43.816C29.2939 43.816 29.4059 43.944 29.5659 44.2C29.8539 45.064 30.1739 45.72 30.5259 46.168C32.0939 48.6 34.5099 49.816 37.7739 49.816C39.8219 49.816 41.7099 49.336 43.4379 48.376C46.7979 46.488 49.4059 43.544 51.2619 39.544C52.5739 36.6 53.8379 31.912 55.0539 25.48C55.4699 23.336 56.1899 20.2 57.2139 16.072C55.0059 19.848 52.7179 23.208 50.3499 26.152C46.6379 30.824 43.6459 33.16 41.3739 33.16C39.3259 33.16 38.3019 31.768 38.3019 28.984C38.3019 26.2 39.2299 22.456 41.0859 17.752C42.9739 13.048 44.9579 8.92 47.0379 5.368L45.1179 4.6C42.4619 8.28 40.1099 12.952 38.0619 18.616C36.0459 24.248 35.0379 29.112 35.0379 33.208C35.0379 33.496 34.9579 33.64 34.7979 33.64C34.6699 33.64 34.6059 33.176 34.6059 32.248C34.6059 28.12 35.6299 23.352 37.6779 17.944C39.7259 12.504 42.0619 8.008 44.6859 4.456C42.7659 3.816 40.9419 3.496 39.2139 3.496C35.8219 3.496 32.9899 4.584 30.7179 6.76C30.1099 7.336 29.8059 7.96 29.8059 8.632C29.8059 9.848 30.8299 10.888 32.8779 11.752C33.6139 12.104 33.9819 12.312 33.9819 12.376C33.9819 12.408 33.8859 12.424 33.6939 12.424C33.5019 12.424 33.1339 12.296 32.5899 12.04C30.0299 10.888 28.7499 9.56 28.7499 8.056C28.7499 7.32 29.1179 6.584 29.8539 5.848C32.1579 3.512 35.5019 2.344 39.8859 2.344C41.8699 2.344 43.8219 2.6 45.7419 3.112C47.1819 1.352 48.0939 0.471998 48.4779 0.471998C48.6059 0.471998 48.6539 0.519999 48.6219 0.615999C48.5899 0.711998 48.2699 1.032 47.6619 1.576C47.0859 2.12 46.5899 2.664 46.1739 3.208C48.6699 3.944 49.9179 4.584 49.9179 5.128V5.272C49.0859 6.552 48.3499 7.848 47.7099 9.16C43.1019 17.8 40.7979 24.504 40.7979 29.272C40.7979 31.256 41.2939 32.248 42.2859 32.248C43.7579 32.248 46.2379 30.12 49.7259 25.864C52.7019 22.152 55.3579 18.312 57.6939 14.344C58.4299 11.112 59.5819 9.112 61.1499 8.344C61.9179 7.96 62.7019 7.768 63.5019 7.768C64.3339 7.768 64.7499 7.88 64.7499 8.104Z" fill="url(#paint0_linear)"/>
<defs>
<linearGradient id="paint0_linear" x1="68.9362" y1="21.8038" x2="68.9362" y2="24.9461" gradientUnits="userSpaceOnUse">
<stop stop-color="#C082F1"/>
<stop offset="1" stop-color="#5DE3E3"/>
</linearGradient>
</defs>
</svg>
