<svg width="168" height="139" viewBox="0 0 168 139" fill="none" xmlns="http://www.w3.org/2000/svg">
<path d="M61.0251 93.7599H11.713C4.96411 93.2191 5.36219 90.3753 2 84.7344M108.469 93.7599H155.54C162.289 93.2191 162.638 90.3753 166 84.7344M11.4079 137H156.729C161.681 137 165.695 132.959 165.695 127.974V27.9411C165.695 22.9564 161.681 18.9155 156.729 18.9155H11.4079C6.45616 18.9155 2.44202 22.9564 2.44202 27.9411V127.974C2.44202 132.959 6.45616 137 11.4079 137ZM63.6401 105.042H103.986C106.05 105.042 107.722 103.358 107.722 101.281V80.2216C107.722 78.1446 106.05 76.4609 103.986 76.4609H63.6401C61.5769 76.4609 59.9043 78.1446 59.9043 80.2216V101.281C59.9043 103.358 61.5769 105.042 63.6401 105.042ZM107.722 18.5469V9.52131C107.722 5.3674 104.377 2 100.251 2H67.3759C63.2494 2 59.9043 5.3674 59.9043 9.52131V18.5469H83.8132H107.722Z" stroke="url(#paint0_linear)" stroke-width="3"/>
<path d="M87.64 34.56C87.64 35.616 86.968 36.384 85.624 36.864C84.664 37.248 83.544 37.44 82.264 37.44C80.984 37.44 79.64 37.264 78.232 36.912C76.76 36.624 75.528 36.128 74.536 35.424C74.472 35.36 74.44 35.296 74.44 35.232C74.44 35.168 74.472 35.136 74.536 35.136C74.632 35.136 74.696 35.152 74.728 35.184C76.488 36.336 78.968 36.912 82.168 36.912C83.256 36.912 84.248 36.72 85.144 36.336C86.04 35.92 86.488 35.312 86.488 34.512C86.488 33.36 85.656 32.496 83.992 31.92C82.84 31.504 81.544 31.296 80.104 31.296C76.104 31.296 73.368 32.592 71.896 35.184C71.448 35.984 71.224 36.816 71.224 37.68C71.224 39.632 72.312 41.344 74.488 42.816C75.928 43.776 77.928 45.056 80.488 46.656C82.632 48.416 83.704 50.608 83.704 53.232C83.704 56.784 81.88 59.632 78.232 61.776C75.192 63.568 71.928 64.464 68.44 64.464C64.984 64.464 62.232 63.856 60.184 62.64C57.624 61.168 56.344 59.04 56.344 56.256C56.344 53.44 57.368 51.152 59.416 49.392C61.496 47.6 63.896 46.704 66.616 46.704C68.12 46.704 68.872 46.832 68.872 47.088C68.872 47.152 68.616 47.184 68.104 47.184C67.592 47.184 67.32 47.184 67.288 47.184C64.696 47.184 62.456 47.952 60.568 49.488C58.552 51.056 57.544 53.168 57.544 55.824C57.544 58.448 58.456 60.48 60.28 61.92C62.104 63.392 64.248 64.128 66.712 64.128C69.176 64.128 71.8 63.552 74.584 62.4C79.384 60.48 81.784 57.488 81.784 53.424C81.784 50.928 80.68 48.912 78.472 47.376C77.768 46.864 76.728 46.176 75.352 45.312C73.976 44.448 73 43.824 72.424 43.44C70.248 41.968 69.16 40.176 69.16 38.064C69.16 36.656 69.688 35.376 70.744 34.224C69.784 34.32 68.968 34.784 68.296 35.616C67.656 36.512 67.336 37.44 67.336 38.4C67.336 40.608 68.376 42.496 70.456 44.064C71.128 44.576 73.048 45.904 76.216 48.048C78.264 49.744 79.288 51.728 79.288 54C79.288 56.272 78.168 58.368 75.928 60.288C73.688 62.24 71.4 63.216 69.064 63.216C68.904 63.216 68.824 63.168 68.824 63.072C68.824 62.88 68.936 62.784 69.16 62.784C70.152 62.656 71 62.48 71.704 62.256C73.432 61.552 74.984 60.432 76.36 58.896C77.736 57.36 78.424 55.744 78.424 54.048C78.424 51.68 77.416 49.744 75.4 48.24C74.792 47.76 73.848 47.104 72.568 46.272C71.32 45.408 70.392 44.752 69.784 44.304C67.736 42.8 66.712 40.848 66.712 38.448C66.712 37.264 67.128 36.224 67.96 35.328C68.792 34.4 69.784 33.936 70.936 33.936H71.032C73.304 31.76 76.232 30.672 79.816 30.672C83.4 30.672 85.816 31.456 87.064 33.024C87.448 33.504 87.64 34.016 87.64 34.56ZM120.75 37.104C120.75 37.232 120.686 37.328 120.558 37.392C120.43 37.424 120.046 37.536 119.406 37.728C117.646 38.848 116.174 41.968 114.99 47.088L112.158 58.944C110.814 63.872 109.294 67.856 107.598 70.896C105.39 74.864 102.686 77.744 99.4859 79.536C98.0139 80.336 96.3019 80.736 94.3499 80.736C92.3979 80.736 90.5259 80.032 88.7339 78.624C87.0699 77.216 85.8699 75.44 85.1339 73.296C85.1019 73.264 85.0859 73.168 85.0859 73.008C85.0859 72.88 85.1339 72.816 85.2299 72.816C85.2939 72.816 85.4059 72.944 85.5659 73.2C85.8539 74.064 86.1739 74.72 86.5259 75.168C88.0939 77.6 90.5099 78.816 93.7739 78.816C95.8219 78.816 97.7099 78.336 99.4379 77.376C102.798 75.488 105.406 72.544 107.262 68.544C108.574 65.6 109.838 60.912 111.054 54.48C111.47 52.336 112.19 49.2 113.214 45.072C111.006 48.848 108.718 52.208 106.35 55.152C102.638 59.824 99.6459 62.16 97.3739 62.16C95.3259 62.16 94.3019 60.768 94.3019 57.984C94.3019 55.2 95.2299 51.456 97.0859 46.752C98.9739 42.048 100.958 37.92 103.038 34.368L101.118 33.6C98.4619 37.28 96.1099 41.952 94.0619 47.616C92.0459 53.248 91.0379 58.112 91.0379 62.208C91.0379 62.496 90.9579 62.64 90.7979 62.64C90.6699 62.64 90.6059 62.176 90.6059 61.248C90.6059 57.12 91.6299 52.352 93.6779 46.944C95.7259 41.504 98.0619 37.008 100.686 33.456C98.7659 32.816 96.9419 32.496 95.2139 32.496C91.8219 32.496 88.9899 33.584 86.7179 35.76C86.1099 36.336 85.8059 36.96 85.8059 37.632C85.8059 38.848 86.8299 39.888 88.8779 40.752C89.6139 41.104 89.9819 41.312 89.9819 41.376C89.9819 41.408 89.8859 41.424 89.6939 41.424C89.5019 41.424 89.1339 41.296 88.5899 41.04C86.0299 39.888 84.7499 38.56 84.7499 37.056C84.7499 36.32 85.1179 35.584 85.8539 34.848C88.1579 32.512 91.5019 31.344 95.8859 31.344C97.8699 31.344 99.8219 31.6 101.742 32.112C103.182 30.352 104.094 29.472 104.478 29.472C104.606 29.472 104.654 29.52 104.622 29.616C104.59 29.712 104.27 30.032 103.662 30.576C103.086 31.12 102.59 31.664 102.174 32.208C104.67 32.944 105.918 33.584 105.918 34.128V34.272C105.086 35.552 104.35 36.848 103.71 38.16C99.1019 46.8 96.7979 53.504 96.7979 58.272C96.7979 60.256 97.2939 61.248 98.2859 61.248C99.7579 61.248 102.238 59.12 105.726 54.864C108.702 51.152 111.358 47.312 113.694 43.344C114.43 40.112 115.582 38.112 117.15 37.344C117.918 36.96 118.702 36.768 119.502 36.768C120.334 36.768 120.75 36.88 120.75 37.104Z" fill="url(#paint1_linear)"/>
<defs>
<linearGradient id="paint0_linear" x1="135.367" y1="84.7344" x2="135.367" y2="93.7599" gradientUnits="userSpaceOnUse">
<stop stop-color="#C082F1"/>
<stop offset="1" stop-color="#5DE3E3"/>
</linearGradient>
<linearGradient id="paint1_linear" x1="124.936" y1="50.8038" x2="124.936" y2="53.9461" gradientUnits="userSpaceOnUse">
<stop stop-color="#C082F1"/>
<stop offset="1" stop-color="#5DE3E3"/>
</linearGradient>
</defs>
</svg>
